<svg id="visual" viewBox="0 0 900 600" width="900" height="600" xmlns="http://www.w3.org/2000/svg" xmlns:xlink="http://www.w3.org/1999/xlink" version="1.1"><path d="M0 205L82 151L164 175L245 103L327 157L409 193L491 115L573 133L655 115L736 211L818 175L900 253L900 0L818 0L736 0L655 0L573 0L491 0L409 0L327 0L245 0L164 0L82 0L0 0Z" fill="#00cc8e"></path><path d="M0 307L82 313L164 331L245 343L327 337L409 283L491 355L573 415L655 337L736 385L818 343L900 355L900 251L818 173L736 209L655 113L573 131L491 113L409 191L327 155L245 101L164 173L82 149L0 203Z" fill="#00aac7"></path><path d="M0 343L82 391L164 403L245 427L327 433L409 385L491 409L573 457L655 403L736 451L818 403L900 415L900 353L818 341L736 383L655 335L573 413L491 353L409 281L327 335L245 341L164 329L82 311L0 305Z" fill="#007dc2"></path><path d="M0 517L82 511L164 505L245 517L327 541L409 487L491 523L573 517L655 517L736 547L818 517L900 523L900 413L818 401L736 449L655 401L573 455L491 407L409 383L327 431L245 425L164 401L82 389L0 341Z" fill="#004baa"></path><path d="M0 601L82 601L164 601L245 601L327 601L409 601L491 601L573 601L655 601L736 601L818 601L900 601L900 521L818 515L736 545L655 515L573 515L491 521L409 485L327 539L245 515L164 503L82 509L0 515Z" fill="#030c82"></path></svg>